<svg xmlns="http://www.w3.org/2000/svg" xmlns:xlink="http://www.w3.org/1999/xlink" width="50" height="50"><g fill="none" fill-rule="evenodd"><g fill="#FFF" transform="translate(-935 -7600)"><path d="M984.778 7600.96c-.05-.11-.088-.129-.111-.168a1.778 1.778 0 0 0-.323-.369c-.055-.04-.105-.071-.162-.112a1.634 1.634 0 0 0-.411-.203c-.072-.022-.142-.03-.213-.045-.097-.018-.186-.063-.285-.063-.228.039-.304.06-.382.082a1.451 1.451 0 0 0-.407.145c-.02.008-4.918 2.928-14.697 8.758l-14.73-8.73a2.786 2.786 0 0 0-.36-.145 1.697 1.697 0 0 0-.176-.039c-.063-.01-.118-.028-.177-.03-.196-.03-.236-.002-.289.004-.063.005-.122.018-.191.03a.967.967 0 0 0-.196.05 1.68 1.68 0 0 0-.247.108c-.023.009-5.216 3.1-15.58 9.272-.227.184-.329.275-.421.387-.072.082-.123.173-.178.27a1.484 1.484 0 0 0-.132.28c-.047.14-.068.279-.08.426-.006.034-.016 12.487-.03 37.357.025.233.061.384.11.549.019.069.035.131.07.198.022.05.022.106.05.153.038.065.105.093.147.147.1.13.21.249.34.341.09.072.166.143.272.193.162.075.34.114.523.14.07.01.13.054.202.054.357-.045.576-.11.772-.212l14.717-8.749 14.725 8.726c.3.123.498.179.713.196.05.007.095.037.15.037.343-.054.556-.11.752-.205.07-.019 5.269-3.11 15.599-9.274.067-.037.105-.1.164-.152.093-.069.186-.144.258-.233.073-.086.122-.173.175-.268a1.455 1.455 0 0 0 .215-.64c.008-.076.046-.154.046-.234l-.004-37.208c-.032-.223-.061-.311-.08-.404a2.072 2.072 0 0 0-.138-.42ZM938 7612.133l13-7.132v32.868L938 7645v-32.868Zm16-7.132 12 7.087V7645l-12-7.087V7605Zm15 7.13 13-7.13v32.87l-13 7.13v-32.87Z"/></g></g></svg>